<?xml version="1.0" encoding="iso-8859-1"?>
<!-- Generator: Adobe Illustrator 19.0.0, SVG Export Plug-In . SVG Version: 6.00 Build 0)  -->
<svg version="1.1" id="Capa_1" xmlns="http://www.w3.org/2000/svg" xmlns:xlink="http://www.w3.org/1999/xlink" x="0px" y="0px"
	 viewBox="0 0 512 512" style="enable-background:new 0 0 512 512;" xml:space="preserve">
<polygon style="fill:#88A6E2;" points="10,322.201 153.996,322.201 153.98,429.952 327.957,255.974 154.031,82.048 154.015,189.799 
	10.188,189.799 "/>
<polygon style="fill:#657FC9;" points="328.074,82.048 502,255.974 328.022,429.952 "/>
<path d="M10.188,199.799H10c-5.522,0-10-4.478-10-10s4.478-10,10-10h0.188c5.522,0,10,4.478,10,10S15.71,199.799,10.188,199.799z"/>
<path d="M509.071,248.903L335.146,74.977c-2.86-2.859-7.16-3.714-10.897-2.168c-3.736,1.548-6.173,5.193-6.174,9.237l-0.022,149.881
	l-156.95-156.95c-2.86-2.859-7.16-3.714-10.897-2.168c-3.736,1.548-6.173,5.193-6.174,9.238l-0.014,97.752H45.667
	c-5.522,0-10,4.478-10,10s4.478,10,10,10h108.349c5.522,0,9.999-4.477,10-9.999l0.012-83.613l149.787,149.788L163.983,405.806
	l0.012-83.604c0-2.652-1.053-5.196-2.929-7.071c-1.875-1.876-4.419-2.93-7.071-2.93H10c-5.522,0-10,4.478-10,10s4.478,10,10,10
	h133.994l-0.015,97.749c-0.001,4.044,2.436,7.691,6.173,9.239c1.237,0.513,2.536,0.762,3.825,0.762c2.603,0,5.16-1.016,7.073-2.929
	l156.994-156.993l-0.022,149.921c-0.001,4.045,2.436,7.692,6.173,9.24c1.237,0.513,2.536,0.762,3.825,0.762
	c2.602,0,5.16-1.016,7.073-2.929l173.978-173.978C512.977,259.141,512.977,252.809,509.071,248.903z M476.487,267.345
	l-47.146-47.146c-3.906-3.904-10.236-3.904-14.143,0c-3.905,3.905-3.905,10.237,0,14.143l47.146,47.146L338.026,405.807
	l0.044-299.62l149.787,149.788L476.487,267.345z"/>
<path d="M399.269,214.269c-2.56,0-5.118-0.977-7.071-2.929l-0.092-0.092c-3.905-3.905-3.905-10.237,0-14.143
	c3.906-3.904,10.236-3.904,14.143,0l0.092,0.092c3.905,3.905,3.905,10.237,0,14.143
	C404.387,213.292,401.828,214.269,399.269,214.269z"/>
<g>
</g>
<g>
</g>
<g>
</g>
<g>
</g>
<g>
</g>
<g>
</g>
<g>
</g>
<g>
</g>
<g>
</g>
<g>
</g>
<g>
</g>
<g>
</g>
<g>
</g>
<g>
</g>
<g>
</g>
</svg>
